<svg id="light" enable-background="new 0 0 24 24" height="512" viewBox="0 0 24 24" width="512" xmlns="http://www.w3.org/2000/svg"><g><path d="m19 24h-14c-1.103 0-2-.897-2-2v-10c0-1.103.897-2 2-2h14c1.103 0 2 .897 2 2v10c0 1.103-.897 2-2 2zm-14-13c-.552 0-1 .449-1 1v10c0 .551.448 1 1 1h14c.552 0 1-.449 1-1v-10c0-.551-.448-1-1-1z"/></g><g><path d="m6.5 11c-.276 0-.5-.224-.5-.5v-4.5c0-3.309 2.691-6 6-6s6 2.691 6 6v.5c0 .276-.224.5-.5.5s-.5-.224-.5-.5v-.5c0-2.757-2.243-5-5-5s-5 2.243-5 5v4.5c0 .276-.224.5-.5.5z"/></g></svg>